<?xml version="1.0" encoding="UTF-8"?>
<svg width="14px" height="15px" viewBox="0 0 14 15" version="1.1" xmlns="http://www.w3.org/2000/svg" xmlns:xlink="http://www.w3.org/1999/xlink">
    <title>icon_action_favorite_default</title>
    <g id="Page-1" stroke="none" stroke-width="1" fill="none" fill-rule="evenodd">
        <path d="M11.9168787,14.7187587 C12.0079991,14.773431 12.0945635,14.7643189 12.1765718,14.6914226 C12.2585802,14.6185263 12.2813603,14.5365179 12.2449121,14.4453975 L12.2449121,14.4453975 L10.2767113,9.14218968 C10.2220391,9.05106927 10.2493752,8.9690609 10.3587197,8.89616457 L10.3587197,8.89616457 L13.9124156,6.38124128 C14.003536,6.32656904 14.0308722,6.24911669 13.994424,6.14888424 C13.9579758,6.04865179 13.8850795,5.99853556 13.775735,5.99853556 L13.775735,5.99853556 L9.26527477,5.99853556 C9.15593028,5.99853556 9.08303395,5.95297536 9.04658579,5.86185495 L9.04658579,5.86185495 L7.21506556,0.886680614 C7.1786174,0.795560205 7.11027709,0.75 7.01004464,0.75 C6.90981219,0.75 6.84147189,0.795560205 6.80502372,0.886680614 L6.80502372,0.886680614 L4.9735035,5.86185495 C4.91883125,5.95297536 4.84593493,5.99853556 4.75481452,5.99853556 L4.75481452,5.99853556 L0.217018144,5.99853556 C0.125897734,5.99853556 0.0621134481,6.04865179 0.0256652844,6.14888424 C-0.0107828792,6.24911669 0.0165532435,6.32656904 0.107673653,6.38124128 L0.107673653,6.38124128 L3.66136961,8.89616457 C3.75249002,8.95083682 3.77982614,9.03284519 3.74337798,9.14218968 L3.74337798,9.14218968 L1.77517714,14.4453975 C1.73872898,14.5365179 1.76150908,14.6185263 1.84351745,14.6914226 C1.92552581,14.7643189 2.0120902,14.773431 2.10321061,14.7187587 L2.10321061,14.7187587 L6.88703209,11.3290795 C6.95992842,11.2744073 7.04193679,11.2744073 7.1330572,11.3290795 L7.1330572,11.3290795 L11.9168787,14.7187587 Z" id="icon_action_favorite_default" fill="#F7B500" fill-rule="nonzero"></path>
    </g>
</svg>