<?xml version="1.0" encoding="UTF-8"?>
<svg width="14px" height="14px" viewBox="0 0 14 14" version="1.1" xmlns="http://www.w3.org/2000/svg" xmlns:xlink="http://www.w3.org/1999/xlink">
    <title>icon_action_blocked_list_default</title>
    <g id="Page-1" stroke="none" stroke-width="1" fill="none" fill-rule="evenodd">
        <path d="M7,14 C7.96614583,14 8.87304688,13.8177083 9.72070312,13.453125 C10.5683594,13.0885417 11.3111979,12.5872396 11.9492188,11.9492188 C12.5872396,11.3111979 13.0885417,10.5683594 13.453125,9.72070312 C13.8177083,8.87304688 14,7.96614583 14,7 C14,6.03385417 13.8177083,5.12239583 13.453125,4.265625 C13.0885417,3.40885417 12.5872396,2.66601562 11.9492188,2.03710938 C11.3111979,1.40820312 10.5683594,0.911458333 9.72070312,0.546875 C8.87304688,0.182291667 7.96614583,0 7,0 C6.03385417,0 5.12695312,0.182291667 4.27929688,0.546875 C3.43164062,0.911458333 2.68880208,1.40820312 2.05078125,2.03710938 C1.41276042,2.66601562 0.911458333,3.40885417 0.546875,4.265625 C0.182291667,5.12239583 0,6.03385417 0,7 C0,7.96614583 0.182291667,8.87304688 0.546875,9.72070312 C0.911458333,10.5683594 1.41276042,11.3111979 2.05078125,11.9492188 C2.68880208,12.5872396 3.43164062,13.0885417 4.27929688,13.453125 C5.12695312,13.8177083 6.03385417,14 7,14 Z M11.9550562,10.7058824 L3.29411765,2.0171844 C3.81229346,1.64705882 4.38136153,1.35558493 5.00132188,1.14276272 C5.62128222,0.929940516 6.27362855,0.823529412 6.95836087,0.823529412 C7.8096497,0.823529412 8.61467284,0.985459352 9.37343027,1.30931923 C10.1321877,1.63317911 10.7937872,2.07732981 11.3582287,2.64177132 C11.9226702,3.20621282 12.3668209,3.86781229 12.6906808,4.62656973 C13.0145406,5.38532716 13.1764706,6.1903503 13.1764706,7.04163913 C13.1764706,7.72637145 13.0700595,8.37871778 12.8572373,8.99867812 C12.6444151,9.61863847 12.343688,10.1877065 11.9550562,10.7058824 L11.9550562,10.7058824 Z M6.97254902,13.1764706 C6.13071895,13.1764706 5.33464052,13.0163399 4.58431373,12.6960784 C3.83398693,12.375817 3.17973856,11.9366013 2.62156863,11.3784314 C2.06339869,10.8202614 1.62418301,10.1660131 1.30392157,9.41568627 C0.983660131,8.66535948 0.823529412,7.86928105 0.823529412,7.02745098 C0.823529412,6.33202614 0.933333333,5.66862745 1.15294118,5.0372549 C1.37254902,4.40588235 1.68366013,3.8248366 2.08627451,3.29411765 L2.08627451,3.29411765 L10.7058824,11.9137255 C10.1751634,12.2980392 9.59411765,12.6045752 8.9627451,12.8333333 C8.33137255,13.0620915 7.66797386,13.1764706 6.97254902,13.1764706 Z" id="icon_action_blocked_list_default" fill="#7F8FA5" fill-rule="nonzero"></path>
    </g>
</svg>